<?xml version="1.0" encoding="UTF-8" standalone="no"?>
<!-- Generator: Adobe Illustrator 16.0.0, SVG Export Plug-In . SVG Version: 6.00 Build 0)  -->

<svg
   version="1.1"
   id="Capa_1"
   x="0px"
   y="0px"
   width="83.818px"
   height="83.818px"
   viewBox="0 0 83.818 83.818"
   style="enable-background:new 0 0 83.818 83.818;"
   xml:space="preserve"
   sodipodi:docname="robot.svg"
   inkscape:version="1.1 (c68e22c387, 2021-05-23)"
   xmlns:inkscape="http://www.inkscape.org/namespaces/inkscape"
   xmlns:sodipodi="http://sodipodi.sourceforge.net/DTD/sodipodi-0.dtd"
   xmlns="http://www.w3.org/2000/svg"
   xmlns:svg="http://www.w3.org/2000/svg"><defs
   id="defs51"><filter
     style="color-interpolation-filters:sRGB;"
     inkscape:label="Invert"
     id="filter4730"
     x="0"
     y="0"
     width="1"
     height="1"><feColorMatrix
       type="hueRotate"
       values="180"
       result="color1"
       id="feColorMatrix4726" /><feColorMatrix
       values="-1 0 0 0 1 0 -1 0 0 1 0 0 -1 0 1 -0.21 -0.72 -0.07 2 0 "
       result="color2"
       id="feColorMatrix4728" /></filter></defs><sodipodi:namedview
   id="namedview49"
   pagecolor="#ffffff"
   bordercolor="#111111"
   borderopacity="1"
   inkscape:pageshadow="0"
   inkscape:pageopacity="0"
   inkscape:pagecheckerboard="1"
   showgrid="false"
   inkscape:zoom="8.9837504"
   inkscape:cx="41.909"
   inkscape:cy="41.909"
   inkscape:window-width="1920"
   inkscape:window-height="1121"
   inkscape:window-x="934"
   inkscape:window-y="1341"
   inkscape:window-maximized="1"
   inkscape:current-layer="Capa_1" />
<g
   id="g16"
   style="filter:url(#filter4730)">
	<g
   id="g14">
		<path
   d="M23.772,51.659h7.416c0.552,0,1,0.446,1,1v7.5h20.168v-7.5c0-0.554,0.447-1,1-1h7.416v-6.5h-37V51.659z M32.272,46.743h20    c0.551,0,1,0.446,1,1c0,0.553-0.449,1-1,1h-20c-0.552,0-1-0.447-1-1C31.272,47.189,31.72,46.743,32.272,46.743z"
   id="path2" />
		<path
   d="M28.022,30.659c0,2.344,1.907,4.25,4.25,4.25c2.343,0,4.25-1.906,4.25-4.25c0-2.344-1.907-4.25-4.25-4.25    C29.929,26.409,28.022,28.316,28.022,30.659z"
   id="path4" />
		<path
   d="M48.022,30.659c0,2.344,1.906,4.25,4.25,4.25c2.342,0,4.25-1.906,4.25-4.25c0-2.344-1.908-4.25-4.25-4.25    C49.929,26.409,48.022,28.316,48.022,30.659z"
   id="path6" />
		<rect
   x="57.022"
   y="57.576"
   width="3.75"
   height="9.167"
   id="rect8" />
		<rect
   x="23.772"
   y="57.576"
   width="3.75"
   height="9.167"
   id="rect10" />
		<path
   d="M41.909,0C18.763,0,0.001,18.764,0.001,41.91c0,23.145,18.763,41.908,41.908,41.908S83.817,65.054,83.817,41.91    C83.817,18.764,65.054,0,41.909,0z M42.272,15.409c11.303,0,20.5,9.196,20.5,20.5c0,0.553-0.449,1-1,1c-0.553,0-1-0.447-1-1    c0-10.201-8.3-18.5-18.5-18.5c-10.202,0-18.5,8.299-18.5,18.5c0,0.553-0.448,1-1,1c-0.552,0-1-0.447-1-1    C21.772,24.606,30.969,15.409,42.272,15.409z M58.522,30.659c0,3.446-2.805,6.25-6.25,6.25c-3.447,0-6.25-2.804-6.25-6.25    c0-3.446,2.803-6.25,6.25-6.25C55.718,24.409,58.522,27.213,58.522,30.659z M38.522,30.659c0,3.446-2.804,6.25-6.25,6.25    c-3.446,0-6.25-2.804-6.25-6.25c0-3.446,2.804-6.25,6.25-6.25C35.718,24.409,38.522,27.213,38.522,30.659z M22.772,39.909h39    c0.551,0,1,0.447,1,1c0,0.553-0.449,1-1,1h-39c-0.552,0-1-0.447-1-1C21.772,40.356,22.22,39.909,22.772,39.909z M29.522,67.743    c0,0.553-0.448,1-1,1h-5.75c-0.552,0-1-0.447-1-1V56.576c0-0.553,0.448-1,1-1h5.75c0.552,0,1,0.447,1,1V67.743z M62.772,67.743    c0,0.553-0.449,1-1,1h-5.75c-0.553,0-1-0.447-1-1V56.576c0-0.553,0.447-1,1-1h5.75c0.551,0,1,0.447,1,1V67.743z M73.188,30.659    v13.5c0,0.553-0.447,1-1,1h-9.416v7.5c0,0.553-0.449,1-1,1h-7.416v7.5c0,0.553-0.449,1-1,1H31.188c-0.552,0-1-0.447-1-1v-7.5    h-7.416c-0.552,0-1-0.447-1-1v-7.5h-9.75c-0.552,0-1-0.447-1-1V29.743c0-0.553,0.448-1,1-1c0.552,0,1,0.447,1,1v13.416h9.75h39    h9.416v-12.5c0-0.553,0.448-1,1-1C72.741,29.659,73.188,30.107,73.188,30.659z"
   id="path12" />
	</g>
</g>
<g
   id="g18">
</g>
<g
   id="g20">
</g>
<g
   id="g22">
</g>
<g
   id="g24">
</g>
<g
   id="g26">
</g>
<g
   id="g28">
</g>
<g
   id="g30">
</g>
<g
   id="g32">
</g>
<g
   id="g34">
</g>
<g
   id="g36">
</g>
<g
   id="g38">
</g>
<g
   id="g40">
</g>
<g
   id="g42">
</g>
<g
   id="g44">
</g>
<g
   id="g46">
</g>
</svg>
