<?xml version="1.0" encoding="utf-8"?>
<!-- Generator: Adobe Illustrator 25.3.1, SVG Export Plug-In . SVG Version: 6.00 Build 0)  -->
<svg version="1.1" id="Layer_1" xmlns="http://www.w3.org/2000/svg" xmlns:xlink="http://www.w3.org/1999/xlink" x="0px" y="0px"
	 viewBox="0 0 260 260" style="enable-background:new 0 0 260 260;" xml:space="preserve">
<style type="text/css">
	.st0{fill:#E8E5EB;}
	.st1{fill:#FFFFFF;stroke:#000000;stroke-miterlimit:10;}
	.st2{fill:#9E9DA0;stroke:#9E9DA0;stroke-miterlimit:10;}
	.st3{fill:#9E9DA0;}
</style>
<polygon class="st0" points="89.72,232.03 96.54,206.46 165.98,206.46 171.1,232.03 "/>
<path d="M16.66,15.6c0,0-8.95-0.14-8.95,7.88s0,157.42,0,157.42h244.54V23.48c0,0-0.85-7.88-7.88-7.88S16.66,15.6,16.66,15.6z"/>
<rect x="16.66" y="23.69" class="st1" width="227.5" height="148.69"/>
<path class="st2" d="M182.1,244.52H77.87c-1.96,0-3.55-1.59-3.55-3.55v-5.4c0-1.96,1.59-3.55,3.55-3.55H182.1
	c1.96,0,3.55,1.59,3.55,3.55v5.4C185.65,242.93,184.06,244.52,182.1,244.52z"/>
<path class="st0" d="M244.37,206.46c0,0,7.88,0.14,7.88-7.88s0-14.27,0-14.27H7.71v14.27c0,0,0,7.88,7.88,7.88
	S244.37,206.46,244.37,206.46z"/>
<rect x="7.71" y="180.9" class="st1" width="244.54" height="3.41"/>
<polygon class="st3" points="95.21,216.19 166.98,216.19 165.28,207.46 97.49,207.46 "/>
</svg>
