<?xml version="1.0" encoding="utf-8"?>
<!-- Generator: Adobe Illustrator 25.3.1, SVG Export Plug-In . SVG Version: 6.00 Build 0)  -->
<svg version="1.1" id="Layer_1" xmlns="http://www.w3.org/2000/svg" xmlns:xlink="http://www.w3.org/1999/xlink" x="0px" y="0px"
	 viewBox="0 0 342.8 100.5" style="enable-background:new 0 0 342.8 100.5;" xml:space="preserve">
<style type="text/css">
	.st0{fill:#1D1D1B;}
</style>
<path class="st0" d="M10.9,51.5L0,28.4h4.9l7.7,17.3H13l7.7-17.3h4.9L14.7,51.5H10.9z M10.5,63V45.9h4.6V63L10.5,63z"/>
<path class="st0" d="M29.7,63v-4.5h9.4V63H29.7z M31,41.7v-4.5h12.4v4.5H31z M40.9,33.1c-0.9,0-1.7-0.4-2.3-1.1
	c-1.3-1.5-1.3-3.7,0-5.1c0.6-0.7,1.4-1.1,2.3-1c0.9,0,1.7,0.4,2.3,1c1.3,1.5,1.3,3.7,0,5.1C42.6,32.7,41.8,33.1,40.9,33.1L40.9,33.1
	z M38.7,63V38.6h4.7V63H38.7z M43,63v-4.5h7.7V63H43z"/>
<path class="st0" d="M96.1,63.5c-9.8,0-14.7-6-14.7-17.9c0-5.6,1.2-10,3.7-13.1c2.6-3.1,6.4-4.9,10.5-4.6c2,0,3.9,0.3,5.7,1.1
	c1.5,0.7,2.8,1.8,3.6,3.3l-3.3,3.6c-0.6-1.1-1.5-1.9-2.6-2.6c-1-0.6-2.2-0.9-3.3-0.9c-2.7-0.1-5.3,1.2-6.9,3.4
	c-1.9,2.8-2.8,6.2-2.6,9.6c0,9.1,3.6,13.6,10.7,13.6c2.2,0,4.4-0.5,6.4-1.5l1,4.3C101.7,62.9,99,63.5,96.1,63.5z"/>
<path class="st0" d="M110,63V26.4h4.7V63H110z M124.5,63V46.2c0.1-1.4-0.3-2.7-1.1-3.8c-0.8-0.9-1.9-1.4-3.1-1.3
	c-3.7,0-5.6,2.5-5.6,7.4l-1.4-6.6h1.8c0-1.5,0.6-2.9,1.7-3.9c1.3-0.9,2.9-1.4,4.5-1.3c2.2-0.1,4.3,0.8,5.8,2.5c1.5,2,2.2,4.5,2.1,7
	V63L124.5,63z"/>
<path class="st0" d="M148.3,63.5c-3.5,0.2-6.8-1.1-9.3-3.5c-2.2-2.3-3.3-5.7-3.3-10c-0.2-3.5,0.8-7,2.8-9.8c1.9-2.4,4.8-3.7,7.9-3.5
	c2.8-0.2,5.6,1,7.4,3.2c1.9,2.7,2.8,5.9,2.6,9.2c0,1.2,0,2.3-0.1,3.3h-16.6v-3.9h12.4c0.1-1.9-0.4-3.8-1.5-5.4
	c-1-1.2-2.6-1.9-4.2-1.9c-1.8-0.1-3.6,0.8-4.7,2.2c-1.2,1.9-1.8,4.1-1.6,6.3c-0.2,2.5,0.6,5,2.3,6.8c1.7,1.6,4.1,2.5,6.5,2.3
	c1,0,1.9-0.1,2.9-0.2c1-0.1,1.9-0.3,2.9-0.5l0.6,4.5c-1.3,0.3-2.5,0.5-3.8,0.6C150.3,63.5,149.2,63.5,148.3,63.5z"/>
<path class="st0" d="M163.4,63V37.2h4.3l0.5,5.5V63L163.4,63z M177.9,63V46.2c0.1-1.3-0.3-2.6-1.1-3.6c-0.8-0.9-1.9-1.3-3.1-1.3
	c-3.7,0-5.6,2.4-5.6,7.2l-1.4-6.6h1.8c0-1.5,0.6-2.9,1.7-3.9c1.3-0.9,2.9-1.4,4.5-1.3c2.2-0.1,4.4,0.8,5.8,2.5c1.5,2,2.2,4.5,2,7V63
	L177.9,63z"/>
<path class="st0" d="M229.7,63.5c-9.8,0-14.7-6-14.7-17.9c0-5.6,1.2-10,3.7-13.1c2.6-3.1,6.5-4.9,10.5-4.6c2,0,3.9,0.3,5.7,1.1
	c1.5,0.7,2.7,1.8,3.5,3.3l-3.3,3.6c-0.6-1.1-1.5-1.9-2.5-2.6c-1-0.6-2.2-0.9-3.4-0.9c-2.7-0.1-5.3,1.2-6.9,3.4
	c-1.9,2.8-2.8,6.2-2.6,9.6c0,9.1,3.6,13.6,10.7,13.6c2.2,0,4.4-0.5,6.4-1.5l1,4.3C235.2,62.9,232.5,63.5,229.7,63.5z"/>
<path class="st0" d="M243.5,63V26.4h4.7V63H243.5z M258,63V46.2c0.1-1.4-0.3-2.7-1.1-3.8c-0.8-0.9-1.9-1.4-3.1-1.3
	c-3.7,0-5.6,2.5-5.6,7.4l-1.4-6.6h1.8c0-1.5,0.6-2.9,1.7-3.9c1.3-0.9,2.9-1.4,4.5-1.3c2.2-0.1,4.4,0.8,5.8,2.5c1.5,2,2.2,4.5,2,7V63
	L258,63z"/>
<path class="st0" d="M279.8,63.5c-2.9,0.1-5.8-1.2-7.6-3.5c-2-2.9-2.9-6.4-2.7-9.9c-0.2-3.5,0.7-7,2.7-9.9c3.6-4.2,10-4.7,14.2-1.1
	c0.4,0.3,0.7,0.7,1.1,1.1c2,2.9,2.9,6.4,2.7,9.9c0.2,3.5-0.7,7-2.7,9.9C285.6,62.4,282.8,63.7,279.8,63.5z M279.8,58.9
	c1.7,0,3.2-0.8,4-2.3c1.9-4.1,1.9-8.9,0-13c-1.3-2.2-4.2-2.9-6.4-1.6c-0.7,0.4-1.2,1-1.6,1.6c-1.9,4.1-1.9,8.9,0,13
	C276.6,58,278.1,58.9,279.8,58.9z"/>
<path class="st0" d="M296.9,63V37.2h4.3l0.4,5.5V63L296.9,63z M311.4,63V46.2c0.1-1.3-0.3-2.6-1.1-3.6c-0.8-0.9-1.9-1.3-3.1-1.3
	c-3.7,0-5.6,2.4-5.6,7.2l-1.4-6.6h1.8c0-1.5,0.6-2.9,1.7-3.9c1.3-0.9,2.9-1.4,4.5-1.3c2.2-0.1,4.3,0.8,5.8,2.5c1.5,2,2.2,4.5,2,7V63
	L311.4,63z"/>
<path class="st0" d="M331.4,63.5c-2.8,0.2-5.4-1.1-7-3.3c-1.6-2.2-2.4-5.5-2.4-9.8s0.8-7.9,2.4-10.2c1.6-2.3,4.2-3.6,7-3.5
	c1.6-0.1,3.2,0.4,4.5,1.4c1.2,0.9,1.9,2.3,2,3.8h1.8l-1.7,7.4c0.1-2.1-0.4-4.2-1.4-6c-1.7-2.3-5-2.8-7.3-1c-0.5,0.4-0.9,0.8-1.2,1.3
	c-1.1,2.1-1.7,4.5-1.5,6.9c-0.1,2.3,0.4,4.6,1.5,6.6c0.9,1.5,2.6,2.3,4.3,2.2c1.7,0.1,3.3-0.7,4.2-2.1c1.1-1.8,1.6-3.9,1.4-6
	l1.6,7.4h-2c-0.1,1.5-0.8,2.8-1.9,3.8C334.5,63.1,332.9,63.6,331.4,63.5z M323.9,74.6l-0.2-4.7l7.6-0.2c2,0.1,3.9-0.7,5.2-2.2
	c1.2-1.8,1.8-3.9,1.6-6V42.6l0.5-5.5h4.3v23.6c0,4.6-1,8-2.9,10.2c-1.9,2.2-5,3.4-9.1,3.5L323.9,74.6z"/>
</svg>
