<?xml version="1.0" encoding="utf-8"?>
<!-- Generator: Adobe Illustrator 25.3.1, SVG Export Plug-In . SVG Version: 6.00 Build 0)  -->
<svg version="1.1" id="Layer_1" xmlns="http://www.w3.org/2000/svg" xmlns:xlink="http://www.w3.org/1999/xlink" x="0px" y="0px"
	 viewBox="0 0 342.8 100.5" style="enable-background:new 0 0 342.8 100.5;" xml:space="preserve">
<style type="text/css">
	.st0{fill:#1D1D1B;}
</style>
<path d="M73.6,100.4c-3.3-3.6-5.4-8.2-6.2-13c-0.8-4.9-0.5-9.9,0.8-14.6c1.5-4.6,3.3-9.1,5.3-13.5c1.9-4.3,3.6-8.7,5-13.2
	c1.4-4.4,2.1-8.9,2.1-13.5c0-4.3-1.2-8.6-3.4-12.3c-2.5-3.6-5.7-6.6-9.6-8.8c-4-2.3-8.2-4.1-12.5-5.5l0.5,0.1
	C55.1,6.1,54.5,6,53.9,6S52.6,5.9,52,5.9c-1.2,0-2.5,0-3.7,0.1c-2.5,0.1-4.9,0.5-7.4,1c-4.8,1-9.3,3.1-13.2,6
	c-3.8,3-6.9,6.9-8.8,11.3c-2,4.6-3.3,9.5-3.7,14.5l0,0c0,0.4-0.1,0.7-0.3,1c-3.2,5.7-6.3,11.3-9.5,17L5,57.3l0,0l0,0l0,0
	c0,0-0.1,0.1-0.1,0.2c0,0-0.1,0.1-0.1,0.2c0,0,0,0,0-0.1c0-0.1,0-0.2,0-0.2c0-0.1,0-0.2-0.1-0.3c-0.2-0.5-0.5-0.5-0.4-0.4
	c0.3,0.1,0.5,0.2,0.8,0.2c0.9,0.2,1.8,0.5,2.6,0.8c0.4,0.2,0.9,0.3,1.3,0.5c0.5,0.2,0.9,0.5,1.4,0.8l0,0c0.5,0.3,0.8,0.8,0.9,1.3
	c0.3,1.9,0.5,3.7,0.6,5.6c0.1,1.8,0.1,3.7,0,5.5c-0.1,1.8-0.2,3.7-0.5,5.5s-0.6,3.6-1,5.4v-0.3c0,0,0,0.1,0,0.2
	c0,0.1,0.1,0.2,0.1,0.4c0.1,0.2,0.2,0.4,0.3,0.6c0.3,0.4,0.8,0.8,1.3,0.9c0.6,0.3,1.3,0.4,1.9,0.4c0.3,0,0.7,0,1,0
	c0.3,0,0.7-0.1,1.1-0.1c3.1-0.6,6.2-1.5,9.2-2.6c3.1-1,6.2-2.1,9.2-3.3l9.2-3.4L35,79.3c-2.9,1.5-5.9,2.8-8.9,4.1
	c-3,1.3-6.2,2.4-9.3,3.3c-0.4,0.1-0.9,0.2-1.3,0.3c-0.5,0.1-0.9,0.1-1.4,0.1c-1,0-1.9-0.1-2.9-0.3c-1-0.3-2-1-2.7-1.8
	c-0.4-0.4-0.7-0.9-0.9-1.5c-0.1-0.3-0.2-0.5-0.3-0.8c-0.1-0.3-0.1-0.7-0.1-1c0-0.1,0-0.1,0-0.2v-0.1c0.3-1.7,0.5-3.4,0.7-5.1
	S8,72.8,8,71.1c0-1.7-0.1-3.4-0.3-5.1c-0.1-1.7-0.4-3.4-0.7-5l1,1.4c-0.3-0.1-0.5-0.3-0.8-0.4c-0.3-0.1-0.7-0.3-1-0.4
	c-0.7-0.2-1.4-0.4-2.1-0.5H3.8H3.7L3.4,61c-0.3-0.1-0.7-0.1-1-0.3c-0.2-0.1-0.3-0.1-0.5-0.2s-0.4-0.2-0.6-0.4
	c-0.4-0.4-0.8-0.9-1-1.4c-0.1-0.3-0.2-0.6-0.3-0.9c0-0.3,0-0.6,0-0.9c0-0.4,0.1-0.9,0.3-1.3c0.1-0.3,0.3-0.6,0.5-0.9
	c0.2-0.3,0.4-0.6,0.6-0.8l-0.4,0.5c3-5.8,6-11.5,9-17.2l-0.3,1c0.4-5.6,1.7-11.1,3.8-16.3c2.3-5.3,5.9-10,10.5-13.6
	c4.6-3.5,9.9-5.9,15.5-7.1c2.8-0.6,5.5-1,8.4-1.1c1.4-0.1,2.8-0.1,4.2,0c0.7,0,1.4,0,2.1,0.1s1.4,0.1,2.2,0.2l0,0
	c0.1,0,0.3,0.1,0.4,0.1C61.7,2,66.3,4,70.6,6.6c4.5,2.7,8.3,6.4,11.1,10.8l0.9,1.8c0.2,0.3,0.3,0.6,0.5,0.9l0.4,0.9
	c0.2,0.6,0.5,1.2,0.7,1.9l0.5,1.9c0.6,2.5,0.9,5.1,0.8,7.8c-0.2,5-1.2,10-3,14.7c-1.7,4.6-3.6,9-5.9,13.4l-3.2,6.4
	c-1,2.1-2.1,4.3-2.9,6.4c-1.5,4.4-2.2,9.1-1.8,13.7c0.2,2.3,0.7,4.7,1.4,6.9C71,96.3,72.1,98.5,73.6,100.4z"/>
<path d="M32.1,100.3c-0.6-1.8-0.9-3.6-1-5.4c-0.1-1.7-0.1-3.3,0-5c0.1-1.6,0.3-3.2,0.5-4.8c0.1-0.8,0.2-1.6,0.4-2.4
	c0.1-0.4,0.1-0.8,0.2-1.3s0-0.9,0.1-1.4v-0.1c0-0.1,0.1-0.1,0.1-0.1c0,0,0,0,0,0c0,0,0.1,0,0.1,0.1c0.9,1.5,1.4,3.2,1.5,5
	c0.2,1.7,0.2,3.5,0.1,5.2c-0.1,1.7-0.3,3.5-0.6,5.2c-0.3,1.7-0.6,3.4-1.1,5.1c0,0.1-0.1,0.1-0.2,0.1c0,0,0,0,0,0
	C32.2,100.5,32.2,100.4,32.1,100.3L32.1,100.3z"/>
<path class="st0" d="M39.3,34.8l-11.5-6v-3l11.5-6v3.3l-8.9,4v0.3l8.9,4V34.8z"/>
<path class="st0" d="M42.4,41l9.7-27.2h2.6L45,41H42.4z"/>
<path class="st0" d="M57.2,34.8v-3.3l8.4-4v-0.3l-8.4-4v-3.4l11.5,6v3.1L57.2,34.8z"/>
<path class="st0" d="M123.3,55.4l-7.2-15.3h3.2l5.1,11.4h0.2l5.1-11.4h3.2l-7.2,15.3H123.3z M123,63.1V51.7h3.1V63L123,63.1z"/>
<path class="st0" d="M135.7,63.1v-3h6.2v3H135.7z M136.6,49v-3h8.2v3H136.6z M143.1,43.3c-0.6,0-1.2-0.3-1.5-0.7
	c-0.9-1-0.9-2.4,0-3.4c0.4-0.4,1-0.7,1.5-0.7c0.6,0,1.2,0.2,1.5,0.7c0.9,1,0.9,2.4,0,3.4C144.3,43,143.7,43.3,143.1,43.3L143.1,43.3
	z M141.7,63.1V46.9h3.1v16.1H141.7z M144.5,63.1v-3h5.1v3H144.5z"/>
<path class="st0" d="M179.7,63.4c-6.5,0-9.7-3.9-9.7-11.8c0-3.7,0.8-6.6,2.5-8.7c1.7-2.1,4.3-3.2,6.9-3.1c1.3,0,2.6,0.2,3.8,0.8
	c1,0.4,1.8,1.2,2.4,2.1l-2.2,2.4c-0.4-0.7-1-1.3-1.7-1.7c-0.7-0.4-1.4-0.6-2.2-0.6c-1.8,0-3.5,0.8-4.6,2.2c-1.3,1.9-1.9,4.1-1.7,6.4
	c0,6,2.4,9,7.1,9c1.5,0,2.9-0.4,4.2-1l0.7,2.8C183.4,63,181.5,63.4,179.7,63.4z"/>
<path class="st0" d="M188.8,63.1V38.9h3.1v24.2H188.8z M198.4,63.1V51.9c0.1-0.9-0.2-1.8-0.7-2.5c-0.5-0.6-1.3-0.9-2.1-0.9
	c-2.4,0-3.7,1.6-3.7,4.9l-0.9-4.4h1.2c0-1,0.4-1.9,1.1-2.6c0.9-0.6,1.9-0.9,3-0.8c1.5-0.1,2.9,0.5,3.8,1.6c1,1.3,1.5,3,1.4,4.7v11.1
	L198.4,63.1z"/>
<path class="st0" d="M214.2,63.4c-2.3,0.1-4.5-0.7-6.2-2.3c-1.4-1.5-2.2-3.7-2.2-6.6c-0.1-2.3,0.5-4.6,1.8-6.5
	c1.3-1.6,3.2-2.4,5.2-2.3c1.9-0.1,3.7,0.7,4.9,2.1c1.3,1.8,1.9,3.9,1.7,6.1c0,0.8,0,1.5-0.1,2.2h-10.9v-2.6h8.2
	c0.1-1.3-0.3-2.5-1-3.5c-0.7-0.8-1.7-1.3-2.8-1.2c-1.2-0.1-2.4,0.5-3.1,1.5c-0.8,1.2-1.2,2.7-1.1,4.2c-0.1,1.6,0.4,3.3,1.5,4.5
	c1.2,1.1,2.7,1.7,4.3,1.6c0.6,0,1.3,0,1.9-0.1c0.6-0.1,1.3-0.2,1.9-0.3l0.4,3c-0.8,0.2-1.7,0.3-2.5,0.4
	C215.4,63.4,214.8,63.4,214.2,63.4z"/>
<path class="st0" d="M224.1,63.1V46h2.8l0.3,3.6v13.5L224.1,63.1z M233.7,63.1V51.9c0.1-0.9-0.2-1.7-0.7-2.4
	c-0.5-0.6-1.3-0.9-2.1-0.8c-2.5,0-3.7,1.6-3.7,4.7l-0.9-4.4h1.2c0-1,0.4-1.9,1.1-2.6c0.9-0.6,1.9-0.9,3-0.8c1.5-0.1,2.9,0.5,3.8,1.6
	c1,1.3,1.5,3,1.4,4.7v11.1L233.7,63.1z"/>
<path class="st0" d="M268,63.4c-6.5,0-9.7-3.9-9.7-11.8c0-3.7,0.8-6.6,2.5-8.7c1.7-2.1,4.3-3.2,7-3.1c1.3,0,2.6,0.2,3.8,0.8
	c1,0.4,1.8,1.2,2.3,2.2l-2.2,2.4c-0.4-0.7-1-1.3-1.7-1.7c-0.7-0.4-1.4-0.6-2.2-0.6c-1.8-0.1-3.5,0.8-4.5,2.2
	c-1.3,1.9-1.9,4.1-1.7,6.4c0,6,2.4,9,7.1,9c1.5,0,2.9-0.4,4.2-1l0.7,2.8C271.7,63,269.8,63.4,268,63.4z"/>
<path class="st0" d="M277.1,63.1V38.9h3.1v24.2H277.1z M286.7,63.1V51.9c0.1-0.9-0.2-1.8-0.7-2.5c-0.5-0.6-1.3-0.9-2.1-0.9
	c-2.5,0-3.7,1.6-3.7,4.9l-0.9-4.4h1.2c0-1,0.4-1.9,1.1-2.6c0.9-0.6,1.9-0.9,3-0.8c1.5-0.1,2.9,0.5,3.8,1.6c1,1.3,1.5,3,1.4,4.7v11.1
	L286.7,63.1z"/>
<path class="st0" d="M301.1,63.4c-1.9,0.1-3.8-0.8-5-2.3c-1.3-1.9-1.9-4.2-1.8-6.5c-0.1-2.3,0.5-4.6,1.8-6.6
	c2.4-2.8,6.6-3.1,9.4-0.7c0.3,0.2,0.5,0.5,0.7,0.7c1.3,1.9,1.9,4.2,1.8,6.6c0.1,2.3-0.5,4.6-1.8,6.5C305,62.6,303.1,63.5,301.1,63.4
	z M301.1,60.3c1.1,0,2.1-0.6,2.7-1.5c1.2-2.7,1.2-5.9,0-8.6c-0.9-1.5-2.8-1.9-4.2-1.1c-0.4,0.3-0.8,0.6-1.1,1.1
	c-1.3,2.7-1.3,5.9,0,8.6C299,59.8,300,60.4,301.1,60.3z"/>
<path class="st0" d="M312.4,63.1V46h2.8l0.3,3.6v13.5L312.4,63.1z M322,63.1V51.9c0.1-0.9-0.2-1.7-0.7-2.4c-0.5-0.6-1.3-0.9-2.1-0.8
	c-2.5,0-3.7,1.6-3.7,4.7l-0.9-4.4h1.2c0-1,0.4-1.9,1.1-2.6c0.9-0.6,1.9-0.9,3-0.8c1.5-0.1,2.9,0.5,3.8,1.6c1,1.3,1.5,3,1.4,4.7v11.1
	L322,63.1z"/>
<path class="st0" d="M335.2,63.4c-1.8,0.1-3.6-0.7-4.6-2.2c-1-1.5-1.6-3.6-1.6-6.5s0.5-5.2,1.6-6.7c1-1.5,2.8-2.4,4.6-2.3
	c1.1-0.1,2.1,0.3,3,0.9c0.8,0.6,1.2,1.5,1.3,2.5h1.2l-1.1,4.9c0.1-1.4-0.2-2.8-1-4c-1.2-1.5-3.3-1.8-4.8-0.7
	c-0.3,0.2-0.6,0.5-0.8,0.8c-0.7,1.4-1.1,3-1,4.6c-0.1,1.5,0.3,3,1,4.3c0.6,1,1.7,1.5,2.9,1.5c1.1,0.1,2.2-0.5,2.8-1.4
	c0.7-1.2,1-2.6,1-4l1.1,4.9h-1.4c0,1-0.5,1.9-1.2,2.5C337.3,63.1,336.3,63.4,335.2,63.4z M330.3,70.7l-0.1-3.1l5-0.2
	c1.3,0.1,2.6-0.5,3.4-1.4c0.8-1.2,1.2-2.6,1.1-4V49.6L340,46h2.8v15.6c0,3-0.6,5.3-1.9,6.7c-1.3,1.4-3.3,2.2-6,2.3L330.3,70.7z"/>
</svg>
